<svg width="19" height="18" viewBox="0 0 19 18" fill="none" xmlns="http://www.w3.org/2000/svg">
<path opacity="0.16" d="M1.5 14.9999C1.5 13.939 1.92143 12.9216 2.67157 12.1715C3.42172 11.4213 4.43913 10.9999 5.5 10.9999H13.5C14.5609 10.9999 15.5783 11.4213 16.3284 12.1715C17.0786 12.9216 17.5 13.939 17.5 14.9999C17.5 15.5303 17.2893 16.039 16.9142 16.4141C16.5391 16.7892 16.0304 16.9999 15.5 16.9999H3.5C2.96957 16.9999 2.46086 16.7892 2.08579 16.4141C1.71071 16.039 1.5 15.5303 1.5 14.9999Z" fill="#6A6A6A" fill-opacity="0.53"/>
<path d="M1.5 14.9999C1.5 13.939 1.92143 12.9216 2.67157 12.1715C3.42172 11.4213 4.43913 10.9999 5.5 10.9999H13.5C14.5609 10.9999 15.5783 11.4213 16.3284 12.1715C17.0786 12.9216 17.5 13.939 17.5 14.9999C17.5 15.5303 17.2893 16.039 16.9142 16.4141C16.5391 16.7892 16.0304 16.9999 15.5 16.9999H3.5C2.96957 16.9999 2.46086 16.7892 2.08579 16.4141C1.71071 16.039 1.5 15.5303 1.5 14.9999Z" stroke="#6A6A6A" stroke-opacity="0.53" stroke-width="2" stroke-linejoin="round"/>
<path d="M9.5 6.99988C11.1569 6.99988 12.5 5.65673 12.5 3.99988C12.5 2.34302 11.1569 0.999878 9.5 0.999878C7.84315 0.999878 6.5 2.34302 6.5 3.99988C6.5 5.65673 7.84315 6.99988 9.5 6.99988Z" stroke="#6A6A6A" stroke-opacity="0.53" stroke-width="2"/>
</svg>
